<svg width="195" height="239" viewBox="0 0 195 239" fill="none" xmlns="http://www.w3.org/2000/svg">
<path d="M81.8667 109.589C95.9055 107.998 108.749 105.794 118.187 94.485C123.865 87.6813 129.441 81.2418 133.879 73.7234C134.811 72.1438 137.244 68.2036 136.998 66.284C136.764 64.457 137.067 62.3672 137.445 60.6317" stroke="#0074D9" stroke-width="3" stroke-linecap="round"/>
<path d="M82.7699 109.486C85.0611 111.178 88.0634 111.856 90.1422 113.391C92.7471 115.314 95.3521 117.237 97.957 119.16C100.159 120.786 102.361 122.412 104.563 124.037C106.418 125.407 110.205 127.231 111.306 129.186C112.526 131.354 114.715 132.887 116.672 134.515C118.778 136.268 106.385 132.767 108.753 134.515C110.867 136.076 108.561 136.322 121.94 143.862C123.769 145.962 112.336 145.568 113.899 147.795" stroke="#0074D9" stroke-width="3" stroke-linecap="round"/>
<path d="M138.239 59.6798C135.203 57.4384 132.167 55.197 129.132 52.9557C126.516 51.0246 123.44 50.4055 120.553 48.9724C118.096 47.7528 113.908 48.3201 111.213 48.1874C106.622 47.9614 102.436 49.1664 98.266 50.6359C90.1294 53.5035 81.164 58.4984 75.7025 65.0424C71.612 69.9437 65.217 74.4624 62.3162 80.1566C61.5276 81.7044 61.7461 84.5957 60.7032 85.8453C60.6281 85.9353 59.3287 83.1966 59.2246 83.0444C58.638 82.1876 57.9195 81.1409 57.0676 80.5119C55.4749 79.3361 53.6136 77.3474 51.7607 76.6367C50.2472 76.0562 50.5413 81.9027 50.6577 82.531C50.9176 83.9341 55.2916 84.5997 53.9092 86.2561C52.5288 87.91 49.8249 88.8467 47.8272 89.8419C46.2795 90.6128 45.2527 93.9905 47.9514 93.3947C49.7847 92.9899 51.6477 92.4571 53.3478 91.6102C54.1649 91.2032 54.7283 90.9365 55.6094 90.5879C56.8197 90.109 55.7049 90.8226 55.7726 91.8621C55.9051 93.8979 55.4596 97.9419 54.769 99.9235C53.2392 104.313 51.0727 124.204 54.769 121.174C55.8585 124.552 57.136 134.837 59.2246 137.812C61.0563 140.421 57.2915 156.674 59.2246 159.184C62.8423 163.88 57.4094 173.213 62.3162 176.835C65.6544 187.423 67.3641 188.42 81.0926 190.75C85.5318 191.504 83.5141 199.173 109.396 178.65C109.396 178.65 114.941 168.159 115.507 166.853C118.282 160.453 112.629 150.045 113.256 148.4" stroke="#0074D9" stroke-width="3" stroke-linecap="round"/>
<path d="M73.9069 86.791C78.6616 81.0938 83.0663 74.5298 89.4182 70.3827C96.1369 65.9962 106.647 62.9892 114.577 64.5156" stroke="#0074D9" stroke-width="3" stroke-linecap="round"/>
<path d="M78.1725 91.4785C85.011 83.2845 96.1361 77.6118 107.107 81.3054" stroke="#0074D9" stroke-width="3" stroke-linecap="round"/>
<path d="M137.313 68.7446C140.289 68.5733 146.579 71.4106 148.907 73.1294C152.467 75.7576 156.45 76.9333 158.028 81.3213C159.889 86.4936 161.111 91.2211 159.907 96.7563C158.608 102.726 156.355 108.572 153.028 113.778C148.806 120.386 142.785 128.707 135.566 132.759C132.836 134.292 129.636 136.466 126.515 136.978C124.625 137.287 119.179 134.155 117.759 134.787" stroke="#0074D9" stroke-width="3" stroke-linecap="round"/>
<path d="M141.992 69.2168C140.047 72.097 140.242 77.1172 139.159 80.3781C138.163 83.3744 138.192 86.7541 136.422 89.5238C133.272 94.4548 130.712 99.4476 126.841 104.086C124.89 106.423 122.94 108.76 120.989 111.097C118.899 113.601 116.338 115.027 113.637 116.868C110.91 118.725 106.472 122.127 102.854 121.431" stroke="#0074D9" stroke-width="3" stroke-linecap="round"/>
<path d="M140.292 70.8231C139.891 70.5267 139.482 70.3476 139.068 70.7337C138.661 71.1125 138.408 71.2565 138.403 70.752C138.393 69.7958 137.683 71.3006 137.63 71.4036C137.423 71.811 137.382 72.4073 137.146 72.7769C136.586 73.6527 136.719 74.8452 136.004 75.7016C135.266 76.5857 134.663 77.4676 133.982 78.3837C133.067 79.6147 132.551 81.1365 131.527 82.3637C130.881 83.1374 130.527 84.08 129.89 84.8437C129.32 85.5266 128.688 86.479 128.427 87.3166C128.073 88.4552 127.256 89.5846 126.639 90.6125C125.933 91.788 125.374 93.0324 124.746 94.2498C123.747 96.1888 121.981 98.24 120.418 99.8111C118.496 101.742 115.418 103.766 112.72 104.639C111.676 104.976 110.361 105.388 109.434 105.924C109.016 106.165 108.568 106.279 108.081 106.305C107.708 106.325 108.275 105.949 108.321 105.917C109.488 105.101 110.762 104.419 111.992 103.694C117.809 100.266 124.308 97.8362 129.305 93.3275C131.008 91.7914 132.18 90.201 133.068 88.1853C133.556 87.0765 133.693 85.9392 134.078 84.8129C134.571 83.3675 134.854 81.7784 135.713 80.4759C136.504 79.2742 136.651 77.6463 137.502 76.5017C137.814 76.0806 137.78 75.266 137.913 74.769C138.033 74.3224 138.299 73.7929 138.301 73.3243C138.306 72.2487 137.898 73.4532 137.798 73.8693C137.62 74.6048 137.523 75.5813 137.546 76.3193C137.582 77.4842 136.922 78.6483 136.679 79.7642C136.432 80.8991 136.023 81.9968 135.484 83.0562C135.069 83.8702 134.765 85.0105 134.775 85.9382C134.778 86.2454 134.58 87.1158 134.456 87.4005C134.218 87.9499 134.228 88.6238 134.632 87.6658C134.867 87.107 135.336 86.2 135.33 85.6471C135.327 85.2886 135.966 84.6832 136.135 84.3516C136.335 83.958 136.434 83.3897 136.328 82.9669C136.229 82.5712 136.637 81.9879 136.513 81.5197C136.497 81.4586 134.237 83.5696 133.95 83.8132C133.305 84.359 132.403 84.6863 131.895 85.2947C131.221 86.1029 130.51 86.8929 129.868 87.7239C129.344 88.4022 129.144 89.3479 128.758 90.1062C128.685 90.2485 128.509 91.4564 128.595 91.4684C129.659 91.6159 131.442 89.8276 132.147 89.2025C132.624 88.7783 133.375 87.7805 134.079 87.665C134.726 87.5591 135.251 87.7605 134.719 88.3976C134.482 88.6812 134.513 89.2505 134.371 89.5779C134.174 90.0337 133.596 90.4793 133.6 90.9773C133.603 91.2556 133.015 92.2551 132.817 92.4922C132.54 92.8242 132.074 93.6854 131.952 94.1051C131.8 94.6307 131.5 95.3333 131.144 95.794C130.853 96.1712 130.084 97.0938 130.007 97.5455C129.894 98.2147 128.814 99.1056 128.392 99.6111C127.819 100.298 127.417 101.039 126.837 101.733C125.838 102.93 124.839 104.127 123.84 105.325C123.266 106.012 122.234 106.585 121.469 107.07C120.092 107.943 118.631 108.757 117.194 109.526C115.418 110.476 113.606 111.251 112.04 112.588C111.285 113.233 110.426 113.745 109.621 114.333C109.3 114.568 107.918 115.087 108.599 114.246C109.378 113.284 110.523 112.609 111.403 111.722C112.952 110.161 114.426 108.59 115.813 106.9C117.409 104.955 118.617 102.761 120.243 100.813C122.041 98.6588 123.862 96.9723 126.549 95.909C127.121 95.683 127.938 95.6629 128.544 95.5942C128.765 95.5692 128.886 95.413 129.128 95.414C129.289 95.4147 128.419 96.4656 128.303 96.604C127.453 97.6229 126.46 98.5534 125.598 99.5854C124.764 100.585 123.986 101.671 122.865 102.399C121.945 102.997 121.078 103.678 120.087 104.172C119.658 104.385 119.439 104.616 120.039 104.114C120.745 103.522 121.519 102.993 122.187 102.362C122.67 101.904 123.153 101.478 123.578 100.968C123.841 100.653 123.778 100.652 123.586 100.973C122.627 102.574 121.663 104.041 120.446 105.5C119.236 106.949 114.001 109.557 115.845 108.937C117.532 108.37 119.006 106.867 120.288 105.746C121.383 104.789 122.565 103.493 123.27 102.245C124.64 99.8235 126.082 97.7091 127.879 95.5555C128.496 94.8162 129.04 93.8458 129.423 92.9846C129.845 92.0368 130.733 91.0027 130.738 89.9389C130.745 88.5396 128.911 91.2054 128.608 91.5683C127.284 93.1551 125.96 94.7419 124.635 96.3287C124.372 96.6438 124.109 96.9588 123.847 97.2738C123.559 97.6188 124.382 96.6319 124.472 96.5248C126.228 94.4199 127.985 92.3151 129.742 90.2102C132.114 87.3674 132.901 84.212 134.246 80.9209C134.842 79.4632 135.767 78.0542 136.202 76.5603C136.274 76.313 137.577 74.0465 136.834 74.1307C136.024 74.2225 134.622 76.5451 134.256 77.2624C133.203 79.3303 132.116 81.6575 130.615 83.4558C130.121 84.0485 129.626 84.6412 129.131 85.2339C128.524 85.9613 127.681 86.453 127.052 87.2063C125.944 88.5341 124.836 89.8618 123.728 91.1896C123.132 91.9038 122.728 92.6464 122.138 93.3537C121.768 93.7966 121.676 94.4258 121.296 94.8816C120.048 96.3765 118.909 98.0005 117.644 99.5169C116.732 100.609 115.768 101.43 114.606 102.263C113.633 102.962 112.169 103.58 111.361 104.45C110.09 105.819 113.794 101.62 115.138 100.314C116.866 98.6361 118.651 97.0136 120.187 95.172C120.624 94.6493 121.06 94.1266 121.496 93.6039C121.793 93.2485 121.804 93.2347 121.473 93.6319C120.811 94.4253 120.148 95.2187 119.486 96.0121C118.794 96.8421 118.131 97.7113 117.393 98.5058C116.632 99.3249 115.594 99.9125 114.694 100.586C113.34 101.601 111.517 102.773 109.83 103.229C108.711 103.532 107.616 103.939 106.515 104.289C105.631 104.571 105.003 105.252 104.191 105.662C103.385 106.069 102.697 106.636 101.893 107.032C101.552 107.2 101.127 107.434 100.859 107.694C100.673 107.874 99.8961 108.008 100.158 108.059C101.242 108.267 102.818 107.673 103.882 107.459C105.139 107.207 106.335 106.583 107.596 106.411C108.904 106.232 112.7 105.246 111.504 105.778C110.837 106.075 109.967 106.176 109.258 106.337C107.735 106.681 106.226 107.101 104.714 107.485C103.558 107.779 102.441 108.061 101.273 108.294C100.196 108.508 99.1466 108.969 98.0388 108.983C97.2589 108.994 94.385 108.88 93.695 109.533C92.9942 110.195 91.4654 110.305 90.5322 110.411C90.0609 110.464 89.698 110.297 89.3076 110.321C89.0293 110.339 88.8213 110.148 88.5614 110.178C88.5384 110.18 89.0828 110.386 89.2747 110.433C90.5726 110.749 91.8051 111.209 93.0508 111.659C94.2956 112.109 95.4893 112.605 96.649 113.128C98.3611 113.899 100.463 114.456 102.032 115.484C102.533 115.812 104.459 117.009 102.941 115.952C100.877 114.513 98.2551 114.152 95.869 113.457C95.645 113.392 92.8255 112.646 93.538 112.358C95.4455 111.587 98.3387 112.16 100.345 112.202C102.084 112.238 103.901 112.386 105.633 112.237C106.54 112.158 106.991 112.099 107.855 111.75C109.178 111.216 111.289 110.763 112.205 109.666C113.036 108.67 114.35 107.874 115.189 106.869C115.472 106.53 116.447 105.621 116.164 105.96C115.567 106.675 114.959 107.412 114.176 107.954C111.978 109.474 109.546 111.109 106.795 111.42C106.159 111.492 105.579 111.837 104.917 111.912C103.987 112.017 102.591 111.923 101.722 111.589C101.084 111.345 100.433 111.393 99.7657 111.469C99.6057 111.487 99.0286 111.528 99.1275 111.484C100.644 110.81 102.529 110.48 104.127 109.948C106.206 109.255 108.436 108.522 110.633 108.235C111.711 108.094 112.748 107.875 113.745 107.432C114.609 107.048 115.764 106.512 116.707 106.405C117.136 106.357 115.922 106.749 115.514 106.883C113.953 107.394 112.433 108.062 110.902 108.648C109.312 109.256 107.771 110.13 106.547 111.271C105.868 111.904 107.107 111.527 107.48 111.45C109.021 111.136 110.573 110.857 112.116 110.551C113.612 110.255 114.936 109.958 116.328 109.339C117.043 109.02 117.598 108.506 118.403 108.337C118.959 108.22 119.937 107.795 120.48 107.924C120.909 108.026 121.593 108.134 122.017 108.086C122.912 107.984 122.259 108.516 121.939 108.899C121.605 109.3 121.145 109.866 120.671 110.102C120.309 110.282 119.622 110.706 119.352 110.961C119.006 111.289 118.399 111.271 118.029 111.523C117.768 111.701 117.08 112.107 116.77 112.109C116.528 112.111 115.505 112.505 115.326 112.672C114.652 113.3 113.235 113.541 112.379 113.868C111.388 114.247 109.781 114.195 108.982 114.811C108.454 115.218 106.617 115.427 105.938 115.359C104.97 115.261 103.89 115.499 102.891 115.507C100.518 115.528 98.08 114.824 95.6819 114.416C93.4289 114.034 92.1654 112.069 90.4622 110.812C89.9545 110.437 89.4292 110.372 88.9121 110.075C88.7685 109.992 87.6966 110.346 88.0097 110.132C88.1946 110.006 88.8943 109.977 89.156 109.927C89.8703 109.788 90.5965 109.655 91.3034 109.487C92.3544 109.236 93.5072 109.467 94.5522 109.543C95.8626 109.639 97.1713 109.943 98.4805 110.011C99.5882 110.068 100.787 109.952 101.87 110.115C104.15 110.457 106.497 111.379 108.513 112.519C109.291 112.958 110.266 113.275 111.131 113.547C111.726 113.734 112.83 113.756 113.318 114.041C113.538 114.169 115.189 114.342 114.868 114.778C114.506 115.268 113.963 115.531 113.488 115.898C113.064 116.225 112.419 116.415 112.095 116.803C111.766 117.197 110.906 117.772 110.401 117.997C109.372 118.454 108.54 118.986 107.341 118.996C106.387 119.005 105.472 119.316 104.545 119.421C103.39 119.552 102.146 119.03 101.257 118.374C100.883 118.098 100.385 118.106 99.9746 117.834C99.3389 117.414 98.5865 117.217 97.9556 116.751C97.5586 116.458 96.3677 115.579 96.7647 115.872C97.2633 116.24 97.762 116.608 98.2607 116.976C98.8367 117.402 100.494 118.825 101.233 118.662C101.54 118.594 102.387 119.389 102.625 119.588C102.765 119.704 102.756 120.156 103.051 119.857C103.406 119.494 103.887 119.216 104.281 118.887C105.439 117.921 107.15 117.241 108.555 116.634C109.463 116.242 110.254 115.707 111.146 115.288C111.317 115.208 112.631 114.862 112.07 114.873C110.03 114.912 107.959 115.813 105.884 115.568C104.516 115.406 103.163 115.357 101.787 115.144C100.287 114.913 98.8514 114.733 97.4468 115.357C96.1396 115.939 95.7232 114.899 94.7113 114.152C94.1543 113.741 93.581 113.178 92.9563 112.868C92.2581 112.521 91.4673 112.368 90.8454 111.909C89.9284 111.232 88.813 110.816 87.8885 110.134C87.6882 109.986 87.4563 109.742 87.2203 109.651C87.1339 109.618 86.6453 109.639 86.8074 109.743C87.004 109.869 87.4566 109.767 87.6885 109.782C88.7826 109.854 89.8452 109.971 90.9465 110.015C93.878 110.132 96.786 109.778 99.7085 109.707C101.252 109.669 102.691 109.456 104.117 108.922C105.589 108.371 107.183 107.346 108.419 106.419C110.251 105.046 112.394 104.047 114.088 102.481C115.818 100.881 117.549 99.3911 119.17 97.7023C120.623 96.1892 122.163 94.7139 123.737 93.312C125.501 91.7403 126.905 89.7174 128.41 87.9145C129.755 86.302 130.788 84.6129 131.953 82.9048C132.372 82.2903 132.687 81.4924 133.156 80.9304C133.285 80.7759 133.772 79.371 133.625 79.3876C133.452 79.4073 132.667 80.2194 132.539 80.3728C132.171 80.8138 131.802 81.2549 131.434 81.6959C131.121 82.0712 130.644 82.9111 130.523 83.3648C130.368 83.9419 129.808 84.4228 129.417 84.8909C129.067 85.3109 128.716 85.731 128.366 86.151C127.965 86.6315 128.416 86.0911 128.57 85.906C128.978 85.4169 129.241 84.8652 129.628 84.379C129.854 84.0957 130.476 82.6088 130.301 82.7941C129.957 83.1597 129.531 83.4575 129.168 83.8923C129.026 84.063 128.114 84.9622 128.249 85.1373C129.148 86.3042 129.317 87.585 129.136 89.0618C128.682 92.7694 125.708 94.9192 123.79 97.9901C123.128 99.0492 122.226 99.9612 121.505 100.987C118.924 104.662 115.579 107.734 112.302 110.847" stroke="#0074D9" stroke-width="5" stroke-linecap="round"/>
<path d="M105.626 113.657C106.707 113.535 107.769 113.642 108.857 113.519C108.982 113.505 109.53 113.557 109.137 113.602C108.1 113.719 107.019 113.594 105.975 113.643C105.68 113.657 103.236 113.589 103.176 113.783C103.086 114.071 105.77 114.266 106.058 114.293C107.183 114.398 105.25 114.33 104.944 114.33C104.778 114.33 103.15 114.318 103.232 114.22C103.629 113.744 105.564 113.799 106.157 113.8C107.182 113.801 108.221 113.566 109.242 113.476C110.376 113.375 111.465 113.408 112.544 113.469C113.315 113.513 114.424 113.265 115.133 113.537C116.023 113.878 114.95 113.058 114.563 112.923C113.227 112.457 111.892 112.269 110.517 111.962C108.857 111.591 107.584 111.889 105.932 112.253" stroke="#0074D9" stroke-width="5" stroke-linecap="round"/>
<path d="M143.709 104.127C141.078 104.127 139.136 105.145 138.974 107.831C138.924 108.666 137.873 109.846 139.237 110.608C140.058 111.066 141.582 111.996 142.525 111.996C145.271 111.996 146.55 111.331 146.55 108.525C146.55 106.705 144.622 104.59 142.762 104.59" stroke="#0074D9" stroke-width="3" stroke-linecap="round"/>
<path d="M150.83 118.292C150.406 118.292 151.679 118.892 151.93 119.12C152.55 119.681 153.112 120.201 153.778 120.714C154.875 121.559 156.162 122.408 156.77 123.696C157.903 126.094 160.04 127.692 161.038 130.135C162.233 133.057 164.068 135.871 165.68 138.603C167.264 141.287 167.596 144.849 168.958 147.734C170.363 150.709 171.015 154.957 171.444 158.19C171.956 162.041 172.99 165.882 173.71 169.723C174.801 175.543 175.812 181.816 176.174 187.612C176.294 189.535 174.997 189.255 173.182 189.661C171.359 190.07 168.938 190.593 167.066 190.593C162.752 190.593 158.467 191.338 154.218 191.338C147.12 191.338 140.021 191.338 132.923 191.338C126.463 191.338 119.059 192.069 112.903 190.138C109.655 189.119 105.613 185.981 104.103 183.139" stroke="#0074D9" stroke-width="3" stroke-linecap="round"/>
<path d="M129.425 156.954C129.334 155.997 125.864 150.346 128.05 149.884C130.385 149.391 132.267 150.531 133.834 152.02C135.454 153.559 136.145 155.232 133.943 156.395C132.715 157.043 130.073 159.678 129.032 157.701" stroke="#0074D9" stroke-width="3" stroke-linecap="round"/>
<path d="M132.935 158.424C135.27 158.633 139.445 160.683 141.133 162.03C142.425 163.062 144.264 163.211 145.56 164.225C146.256 164.769 147.738 165.521 148.519 165.832C150.478 166.61 153.438 168.094 154.942 169.438C156.171 170.537 157.4 171.475 159.172 170.771C162.133 169.594 164.348 166.977 167.26 165.675C169.276 164.774 171.177 163.683 173.178 162.735C177.27 160.799 181.818 158.777 186.593 158.777" stroke="#0074D9" stroke-width="3" stroke-linecap="round"/>
<path d="M159.363 126.194C163.464 126.194 167.466 125.437 171.619 125.517C174.23 125.567 176.782 126.54 179.311 126.853C181.262 127.095 180.467 126.925 181.853 125.724C182.872 124.841 183.859 123.817 184.982 122.994C186.463 121.909 188.41 120.893 190.219 120.283C190.966 120.032 192.686 119.623 193 119.079" stroke="#0074D9" stroke-width="3" stroke-linecap="round"/>
<path d="M97.6965 112.376C97.9113 113.384 99.6013 114.443 100.39 115.109C101.151 115.752 102.169 115.931 103.151 115.931C104.655 115.931 105.752 115.526 106.67 114.367C107.172 113.732 107.921 113.259 108.37 112.597C108.864 111.869 108.909 111.022 108.909 110.188C108.909 107.427 104.585 107.852 102.848 108.71C101.883 109.187 100.9 109.824 100.045 110.448C99.6253 110.755 98.3025 111.498 98.3025 111.949" stroke="white" stroke-width="2" stroke-linecap="round"/>
<path d="M97.6965 112.656C97.9278 112.631 98.421 112.133 98.6252 111.978C98.6833 111.934 98.9289 111.424 98.9745 111.662C99.0301 111.952 98.8729 112.377 98.7681 112.656C98.5466 113.244 98.8174 113.966 99.3793 113.198C99.94 112.432 100.289 109.652 100.411 110.577C100.486 111.144 100.04 112.809 100.284 112.287C100.673 111.457 101.333 110.737 101.689 109.892C102.051 109.035 101.037 111.643 100.554 112.445C100.384 112.727 100.505 112.606 100.641 112.377C100.963 111.834 101.456 111.37 101.689 110.781C101.768 110.581 102.062 110.032 102.062 110.246C102.062 110.618 101.672 111.193 101.523 111.526C101.26 112.11 101.081 112.706 100.872 113.303C100.736 113.69 100.852 113.695 101.078 113.409C101.598 112.751 102.134 112.111 102.586 111.406C102.788 111.091 103.005 110.631 103.301 110.382C103.367 110.326 102.857 112.122 102.84 112.385C102.84 112.386 103.228 111.611 103.332 111.368C103.575 110.804 103.789 110.24 104.047 109.681C104.269 109.199 104.164 109.434 104.118 109.892C104.056 110.515 103.84 111.075 103.84 111.707C103.84 112.024 103.701 112.555 103.983 112.046C104.251 111.563 104.56 111.062 104.769 110.555C104.88 110.286 105.126 109.468 105.126 109.757C105.126 110.351 104.789 110.919 104.698 111.504C104.637 111.895 104.55 112.428 104.38 112.791C104.166 113.248 104.443 112.709 104.555 112.55C104.681 112.37 104.915 111.825 105.126 111.737C105.335 111.651 105.272 112.796 105.269 112.897C105.253 113.619 104.588 114.982 105.476 113.605C105.843 113.034 106.827 112.01 105.992 113.266C105.637 113.798 105.429 114.553 104.698 114.553C104.031 114.553 103.364 114.553 102.697 114.553C102.068 114.553 101.438 114.553 100.808 114.553C99.7957 114.553 100.171 114.371 99.6651 113.77C99.4318 113.494 99.7574 113.933 99.8397 114.011C100.226 114.378 100.614 114.662 101.118 114.877C101.675 115.115 102.588 115.216 103.197 115.088C103.567 115.01 104.308 114.499 103.769 114.215C103.301 113.968 102.269 114.01 102.269 114.614C102.269 115.165 103.248 115.08 103.269 114.523C103.282 114.185 103.451 112.825 102.84 112.791C102.189 112.755 102.317 114.037 102.697 113.846C103.262 113.562 102.66 112.804 102.3 112.686C101.419 112.396 102.047 113.45 102.412 113.672C103.408 114.28 104.075 113.803 104.475 112.934C104.598 112.669 104.609 111.249 103.983 111.843C103.703 112.108 103.402 113.61 103.872 113.77C104.773 114.078 105.438 113.22 105.547 112.392C105.579 112.151 105.671 111.707 105.333 111.707C104.958 111.707 104.588 111.67 104.412 112.046C104.194 112.51 104.185 113.518 104.769 112.656C104.966 112.366 105.687 110.966 105.69 110.977C105.714 111.078 105.843 112.593 106.381 112.083C106.684 111.796 106.698 110.014 106.698 111.24C106.698 111.576 106.698 111.913 106.698 112.249C106.698 112.339 106.698 111.594 106.698 111.406C106.698 110.591 106.555 110.486 106.555 111.406C106.555 111.575 106.698 112.065 106.698 111.895C106.698 111.554 106.529 111.443 106.341 111.165C106.168 110.91 105.878 110.905 105.698 110.69C105.548 110.513 105.617 110.32 105.476 110.148C104.968 109.529 104.387 109.538 103.626 109.538C103.243 109.538 103.399 109.881 103.189 109.937C103.059 109.973 102.624 110.04 102.713 109.998C103.6 109.577 104.703 109.621 105.698 109.674C106.84 109.734 106.984 110.45 106.984 111.368C106.984 111.688 107.019 112.242 106.809 112.49C106.585 112.756 106.833 112.246 106.841 112.114C106.872 111.58 107.072 111.021 107.158 110.487C107.201 110.223 107.557 108.893 106.984 108.861C106.511 108.834 106.028 108.861 105.555 108.861C104.663 108.861 103.685 109.415 103.055 110.013C102.231 110.793 100.862 111.184 100.705 112.377C100.622 113.009 100.986 113.491 101.269 114.011C101.389 114.233 102.379 114.931 102.666 114.659C102.951 114.388 102.303 113.907 102.158 113.8C101.788 113.531 101.31 113.605 100.872 113.605C99.914 113.605 101.341 114.37 101.697 114.418" stroke="white" stroke-width="2" stroke-linecap="round"/>
<path d="M112.112 105.279C112.112 106.204 112.333 106.436 112.992 106.838C113.42 107.098 114.382 107.542 114.821 107.061C115.756 106.035 116.496 104.289 115.905 102.829C115.5 101.832 113.641 101.427 112.857 102.095C112.257 102.607 112.471 103.286 112.278 103.976C112.113 104.562 112.112 105.254 112.112 105.873" stroke="white" stroke-width="2" stroke-linecap="round"/>
<path d="M112.113 104.991C112.113 105.483 112.063 106.252 112.955 106.21C113.499 106.184 113.293 104.066 113.293 103.773C113.293 103.677 113.046 103.079 112.965 103.306C112.843 103.648 112.955 104.124 112.955 104.48C112.955 105.838 112.994 104.44 112.955 103.908C112.944 103.754 112.252 105.314 112.656 105.638C113.171 106.052 113.617 104.635 113.63 104.645C113.74 104.734 113.76 105.745 113.789 105.931C113.818 106.115 114.257 106.806 114.304 106.315C114.345 105.887 114.473 105.496 114.473 105.059C114.473 104.525 114.422 105.155 114.482 105.322C114.637 105.759 114.714 104.196 114.22 103.976C113.707 103.747 113.843 104.121 114.136 104.314C114.351 104.457 114.319 103.578 114.21 103.442C114.138 103.35 113.706 102.842 113.499 102.99C113.452 103.024 113.287 103.55 113.471 103.035C113.656 102.513 114.58 103.566 114.632 103.712C114.726 103.976 114.81 105.079 114.81 104.299C114.81 103.882 115.036 102.862 114.557 102.554C114.518 102.529 115.147 103.63 115.147 103.976C115.147 104.389 115.316 104.915 115.316 105.397" stroke="white" stroke-width="2" stroke-linecap="round"/>
<path d="M68.8651 124.079C68.8651 127.191 71.372 130.582 72.1896 133.563C73.3933 137.95 73.9966 142.254 74.711 146.735C76.0851 155.352 75.225 163.953 75.225 172.613C75.225 174.236 74.6752 175.988 76.5419 176.503C77.7928 176.848 80.2371 172.571 80.9424 171.839C82.7093 170.002 82.4922 169.04 84.9253 170.382C86.8088 171.42 87.9382 173.946 90.1288 174.55C92.3322 175.158 92.3485 172.342 91.7669 170.94C90.5943 168.111 89.0225 165.221 87.2219 162.711C85.3992 160.171 84.0488 156.509 82.966 153.584C82.4796 152.27 81.7643 151.07 81.2957 149.741C80.768 148.243 80.1772 146.53 79.4006 145.138C78.1072 142.821 77.6035 140.105 76.3813 137.747C75.2878 135.636 75.4003 132.975 74.2132 130.913C73.4485 129.585 72.9287 128.212 72.1093 126.868C71.5723 125.987 69.8758 124.125 68.8651 123.8" stroke="#0074D9" stroke-width="3" stroke-linecap="round"/>
<path d="M69.6685 127.146C69.6069 127.193 70.6947 128.675 70.8131 128.875C71.5298 130.082 72.0852 131.433 72.5649 132.741C72.8851 133.615 73.1071 134.547 73.4758 135.4C73.8857 136.349 73.5342 135.127 73.3941 134.808C72.6534 133.121 71.8094 131.493 71.0291 129.827C70.726 129.18 70.5323 128.481 70.3576 127.794C70.2901 127.529 70.0462 126.757 70.1941 126.991C70.6358 127.69 70.9176 128.559 71.2452 129.307C71.8738 130.741 72.2644 132.234 72.6116 133.749C73.4393 137.362 73.8985 140.943 75.1809 144.457C75.835 146.25 76.6247 147.84 76.8685 149.737C76.9106 150.064 76.9002 150.769 77.2247 151C77.4022 151.126 77.2364 150.579 77.2364 150.368C77.2364 149.615 77.1635 148.908 77.0262 148.163C76.5463 145.562 76.02 142.977 75.1108 140.486C74.7798 139.578 74.1753 138.657 73.978 137.721C73.8411 137.072 73.3473 136.345 73.3473 135.716C73.3473 134.728 73.3473 133.74 73.3473 132.752C73.3473 132.291 73.1316 131.847 72.9269 131.434C72.824 131.226 72.7036 130.886 72.7167 131.334C72.7366 132.013 73.0181 132.639 73.2364 133.273C74.7728 137.737 75.1796 142.477 76.5181 146.989C78.2105 152.694 80.4572 158.327 81.5692 164.173C81.5972 164.32 81.7719 165.308 81.7444 165.131C81.6693 164.65 81.5262 164.182 81.4174 163.707C81.1663 162.613 80.7983 161.6 80.3896 160.55C79.8907 159.267 79.4333 157.97 78.9181 156.694C78.6834 156.113 78.6214 155.474 78.34 154.911C78.2984 154.827 78.0867 154.073 77.9137 154.357C77.3046 155.355 77.1292 156.899 76.9853 158.002C76.7525 159.786 76.7148 161.669 76.8743 163.464C76.9143 163.914 77.1547 165.414 77.7386 165.613C77.9281 165.678 77.7643 162.61 77.7152 162.3C77.442 160.577 77.0053 158.889 76.7108 157.171C76.5119 156.01 76.2325 154.889 76.1035 153.714C76.0341 153.082 76.1207 152.283 75.9225 151.681C75.8839 151.564 75.87 151.009 75.87 151.382C75.87 152.183 75.9252 152.915 76.1269 153.697C76.599 155.53 77.1313 157.459 77.2364 159.353C77.3695 161.752 77.0041 154.549 76.7108 152.163C76.5611 150.945 76.3622 149.747 76.0802 148.551C76.0708 148.511 75.8858 147.798 75.9225 147.798C76.2023 147.798 76.4774 149.206 76.524 149.371C77.1631 151.631 77.3894 153.891 77.4991 156.223C77.6314 159.034 77.4699 161.832 77.4466 164.638C77.4396 165.48 77.4466 166.322 77.4466 167.164C77.4466 167.518 77.4154 167.806 77.3181 167.253C77.0916 165.964 76.7713 164.695 76.5824 163.397C76.3031 161.479 76.2846 159.529 76.1853 157.597C76.1456 156.825 75.9751 156.04 75.9751 155.271C75.9751 155.165 75.9534 155.025 75.87 155.21C75.6389 155.721 75.5944 156.35 75.5079 156.894C74.977 160.236 75.1384 163.803 75.3678 167.164C75.4245 167.996 75.4857 168.835 75.6364 169.657C75.6449 169.703 75.6623 170.275 75.7415 170.2C76.1503 169.812 76.193 168.679 76.2904 168.161C76.4576 167.271 76.7108 166.292 76.7108 165.386C76.7108 162.743 76.8159 170.67 76.8159 173.313C76.8159 173.86 76.8517 174.398 76.7342 174.93C76.7071 175.053 76.5011 175.562 76.6291 175.684C76.8808 175.923 77.2134 175.266 77.3006 175.147C78.1522 173.98 78.5797 172.607 79.467 171.474C80.1228 170.636 80.9481 170.23 81.8612 169.673C82.6073 169.218 83.7266 168.341 84.6174 168.926C85.0848 169.233 85.761 169.542 86.0422 170.022C86.2753 170.421 86.5103 170.822 86.7487 171.225C87.0487 171.73 87.4539 171.909 87.8991 172.255C88.116 172.423 88.735 172.8 89.0086 172.814C89.3817 172.834 89.7466 173.278 90.0597 173.435C90.5281 173.67 90.5852 173.611 90.5852 173.114C90.5852 172.484 90.4296 172.237 90.0013 171.756C89.393 171.074 89.1749 170.205 88.5064 169.546C87.9573 169.005 87.4364 168.514 87.0349 167.851C86.6398 167.199 86.0679 166.463 85.7502 165.785C85.7268 165.735 85.5073 165.432 85.6042 165.452C86.0559 165.548 86.7549 166.768 86.9706 167.048C87.7794 168.098 88.4675 169.235 89.3181 170.255C89.7234 170.741 90.1953 171.435 90.7137 171.817C91.1611 172.147 91.5491 172.488 91.9516 172.87C92.127 173.036 92.154 173.197 91.9283 172.914C91.6513 172.567 91.3966 172.188 91.1575 171.817C90.3273 170.529 89.401 169.281 88.4947 168.039C87.9607 167.308 87.6948 166.477 87.2801 165.691C86.8064 164.792 86.0383 164.224 85.54 163.397C85.3611 163.1 84.9999 162.871 84.8276 162.544C84.7855 162.464 84.5354 162.114 84.6407 162.267C84.9845 162.766 85.2787 163.262 85.5925 163.779C85.7674 164.067 85.9641 164.342 86.2115 164.577C86.5067 164.857 85.6952 163.955 85.4407 163.641C84.6172 162.625 84.0327 161.352 83.4378 160.206C82.8994 159.17 82.5077 158.055 82.0247 156.993C81.6254 156.116 81.1686 155.299 80.8101 154.406C80.481 153.587 79.8915 152.929 79.5546 152.13C79.0666 150.972 78.8107 149.73 78.3926 148.529C77.9968 147.392 77.5719 146.201 76.921 145.172C76.5311 144.555 76.5411 143.788 76.3429 143.111C76.224 142.705 76.0348 142.325 75.8174 141.954C75.5731 141.536 75.5304 140.948 75.3678 140.486C75.3239 140.361 75.0338 139.949 75.1576 139.832C75.2763 139.719 75.7377 140.599 75.7648 140.652C77.1276 143.275 78.4515 145.947 79.4378 148.723C80.6864 152.237 82.1515 155.733 84.0918 158.954C84.5531 159.72 83.3336 157.341 82.8772 156.572C82.0898 155.247 81.1868 153.994 80.3896 152.673C79.5324 151.252 78.7244 149.767 78.0831 148.246C77.8022 147.58 78.333 149.666 78.5561 150.351C79.4472 153.09 80.2614 155.855 81.2772 158.556C82.4656 161.715 84.1033 164.705 85.5341 167.768C86.4452 169.718 87.5204 171.616 88.1911 173.656C88.3369 174.1 88.8791 175.395 88.6699 174.975C87.5013 172.627 86.2424 170.327 85.0378 167.995C84.1451 166.267 83.0965 164.61 82.0831 162.943C81.6932 162.302 81.3068 161.618 80.8626 161.01C80.5077 160.523 80.7246 161.344 80.7809 161.575C81.0622 162.724 81.7125 163.891 82.3225 164.909C82.4383 165.103 82.9843 166.411 83.2743 166.411C83.5118 166.411 82.3352 163.587 82.2582 163.397C81.9383 162.608 81.4599 161.817 80.9736 161.104C80.5336 160.459 80.533 160.785 80.7283 161.403C81.3496 163.368 82.4674 165.178 83.4845 166.97C84.4832 168.73 81.6694 163.361 80.6583 161.608C80.2758 160.945 79.9297 160.246 79.5021 159.608C79.3773 159.422 79.4415 160.82 79.4437 161.059C79.456 162.403 79.7368 163.694 80.0743 164.993C80.2557 165.69 80.2996 165.552 80.2845 164.86C80.2619 163.82 79.8943 162.777 79.6539 161.769C79.5218 161.215 79.4084 160.594 79.0816 160.107C78.9191 159.864 79.0232 160.927 79.0232 161.109C79.0232 162.064 79.0232 163.019 79.0232 163.973C79.0232 164.329 78.9913 164.863 79.1809 165.186C79.4322 165.616 79.2301 164.756 79.2101 164.516C79.0627 162.746 78.2121 161.054 78.1824 159.276C78.1762 158.911 78.1984 158.544 78.1824 158.179C78.176 158.035 78.0772 158.84 78.0772 159.004C78.0772 161.311 78.3877 163.802 77.8904 166.056C77.5703 167.507 77.5167 169.018 77.1838 170.471C77.0488 171.06 77.0262 171.654 77.0262 172.255C77.0262 172.258 77.1103 172.149 77.1546 172.116C77.3365 171.984 77.4684 171.832 77.6101 171.662C78.2913 170.844 78.9451 169.951 79.3853 168.992C79.8038 168.08 80.7533 165.244 80.2845 166.134C79.975 166.721 79.7374 167.374 79.5488 168.006C79.5259 168.083 79.3483 168.92 79.4028 168.909C79.8133 168.822 80.462 168.185 80.7926 167.934C81.0659 167.727 81.3743 167.428 81.6977 167.297C81.8473 167.236 81.1107 169.253 81.5692 169.103C81.707 169.058 82.6701 168.313 82.34 168.626C82.2228 168.738 81.9306 169.025 81.7561 169.025C81.6112 169.025 81.4487 168.624 81.3356 168.532C80.9508 168.219 79.6915 168.196 79.1867 168.333C79.0504 168.37 78.9957 168.66 79.0291 168.771C79.1058 169.025 79.4414 168.148 79.4437 168.05C79.4666 167.049 79.6423 166.33 78.6845 165.735C78.4942 165.617 78.1073 165.575 77.8904 165.657C77.6437 165.751 77.7619 166.428 77.7619 166.632C77.7619 167.511 78.8536 167.55 79.2802 166.876C79.5357 166.472 79.7309 166.074 79.9108 165.635C79.9156 165.624 80.1359 164.904 80.2612 165.181C80.4887 165.685 80.2845 166.675 80.2845 167.208C80.2845 167.69 80.131 168.481 80.3896 168.903C80.8312 169.625 81.659 168.854 81.9079 168.482C82.1648 168.099 82.3571 167.878 82.7546 167.585C83.3615 167.137 82.4313 168.738 82.2816 168.948C81.9614 169.395 81.3499 169.84 80.7867 169.38C80.1069 168.825 79.8323 166.912 80.0802 166.089C80.1761 165.771 81.2697 166.181 81.3882 166.383C81.5483 166.656 81.9901 167.43 82.3867 167.43C82.7121 167.43 82.3178 166.343 82.4918 166.333C83.5074 166.276 84.0968 167.192 84.6582 167.84C85.2 168.466 85.7329 169.109 86.3283 169.673C86.588 169.92 87.0973 169.986 87.4319 170.144C87.9951 170.411 88.455 170.694 88.9035 171.119C89.2847 171.481 89.2721 171.77 89.429 172.216" stroke="#0074D9" stroke-width="3" stroke-linecap="round"/>
<path d="M83.2808 159.211C83.2808 160.38 84.8825 161.164 84.8825 162.358" stroke="#0074D9" stroke-width="3" stroke-linecap="round"/>
<path d="M64.0599 19.9286C64.0599 22.8161 65.7169 27.6321 67.2634 30.1718C68.6473 32.4444 69.9046 23.1929 70.7635 22.9626C73.2512 22.2956 74.2644 31.8746 76.8738 31.7306C78.6383 31.6332 79.2465 22.072 81.6791 20.9307" stroke="#0074D9" stroke-width="3" stroke-linecap="round"/>
<path d="M87.1798 23.0763C87.1798 24.819 87.4293 27.0627 87.1604 28.7917C86.9712 30.0086 86.4843 31.3366 86.4843 32.5191" stroke="#0074D9" stroke-width="3" stroke-linecap="round"/>
<path d="M86.5485 12.1681C86.5485 13.6412 86.04 15.4724 87.8842 15.8827C89.7346 16.2944 90.7024 15.5281 91.7725 14.1889C92.3593 13.4544 92.1347 10.5634 91.0898 10.5634C90.2798 10.5634 89.2271 10.3703 88.4482 10.5932C87.7364 10.7968 87.8451 12.3215 87.0828 12.703" stroke="#0074D9" stroke-width="3" stroke-linecap="round"/>
<path d="M100.9 6.55124C100.9 17.3361 96.8956 27.3418 96.8956 38.0274" stroke="#0074D9" stroke-width="3" stroke-linecap="round"/>
<path d="M93.6921 18.3548H104.103" stroke="#0074D9" stroke-width="3" stroke-linecap="round"/>
<path d="M105.705 9.69885C105.705 14.5969 105.799 19.2356 106.826 24.0643C107.207 25.8548 108.403 27.9934 108.508 29.7825C108.528 30.121 108.882 32.8369 109.038 32.4882C109.821 30.7348 108.313 26.2679 111.872 26.2679C115.299 26.2679 115.581 28.3931 116.917 30.7867" stroke="#0074D9" stroke-width="3" stroke-linecap="round"/>
<path d="M124.64 23.9108C124.64 26.8625 123.351 30.2292 126.992 30.8519C129.003 31.1958 133.426 30.6447 133.636 28.2801C133.898 25.3192 133.981 19.9286 129.373 19.9286C125.669 19.9286 123.593 23.381 122.523 26.3996" stroke="#0074D9" stroke-width="3" stroke-linecap="round"/>
<path d="M142.115 20.7155C142.115 22.8121 140.997 27.5432 142.644 29.0764C143.422 29.8006 144.496 30.06 145.55 30.06C147.906 30.06 147.305 27.9097 148.163 26.426C149.475 24.159 148.985 18.2019 148.985 25.1145C148.985 27.2561 149.827 35.3701 152.156 36.4536" stroke="#0074D9" stroke-width="3" stroke-linecap="round"/>
<path d="M161.458 1.82983C161.144 5.20844 159.528 8.51472 159.416 11.9332C159.298 15.4957 159.416 19.082 159.416 22.6471C159.416 25.532 158.953 28.4041 161.06 30.6965C164.459 34.392 170.298 27.1513 172.177 25.3117" stroke="#0074D9" stroke-width="3" stroke-linecap="round"/>
<path d="M149.753 12.5374C154.889 12.9948 159.869 14.5824 164.994 12.8251C167.101 12.1024 169.185 11.5139 171.307 10.8685C173.029 10.345 174.525 9.3178 176.182 8.91199" stroke="#0074D9" stroke-width="3" stroke-linecap="round"/>
<path d="M145.749 142.686C147.261 142.814 149.753 145.532 149.753 146.62" stroke="#0074D9" stroke-width="3" stroke-linecap="round"/>
<path d="M148.952 139.538C148.952 142.194 151.447 143.065 152.956 145.046" stroke="#0074D9" stroke-width="3" stroke-linecap="round"/>
<path d="M151.383 158.424C151.383 156.843 149.165 154.42 149.903 153.071C151.021 151.029 153.383 150.919 155.408 150.043C158.967 148.503 162.043 148.215 164.169 152.098" stroke="#0074D9" stroke-width="3" stroke-linecap="round"/>
<path d="M83.3494 206.947C83.1574 205.368 81.085 202.59 79.261 202.497C75.1361 202.287 76.1948 207.553 76.1948 210.299C76.1948 215.202 78.794 219.553 80.3967 224.146C81.9072 228.475 83.4044 232.823 84.8825 237.114" stroke="#0074D9" stroke-width="3" stroke-linecap="round"/>
<path d="M72.0686 223.737C79.3171 223.737 86.4764 222.163 93.6921 222.163" stroke="#0074D9" stroke-width="3" stroke-linecap="round"/>
<path d="M117.623 216.337C113.9 213.303 109.342 212.957 105.101 214.647C100.041 216.663 103.332 222.563 106.827 224.438C111.177 226.771 114.426 224.008 117.389 221.058C119.297 219.157 120.863 216.842 122.362 214.647C123.836 212.488 125.4 212.671 127.628 211.878C130.59 210.825 138.225 210.689 140.501 212.956C144.035 216.477 139.177 219.792 136.581 220.941C133.374 222.361 127.337 220.862 124.235 219.979C122.32 219.434 116.92 217.036 116.043 215.288" stroke="#0074D9" stroke-width="3" stroke-linecap="round"/>
<path d="M162.853 215.656C160.506 215.656 158.355 214.915 155.931 215.155C153.264 215.419 153.802 219.814 153.802 221.419C153.802 223.914 154.587 225.974 156.996 227.432C158.04 228.064 160.186 229.689 161.522 229.13C163.219 228.421 162.321 223.492 162.321 222.171C162.321 218.52 162.558 214.784 162.202 211.146C161.884 207.892 160.552 205.303 159.777 202.238C159.675 201.837 158.823 199.343 158.18 199.343C158.085 199.343 158.568 200.557 158.594 200.651C158.829 201.536 159.111 202.414 159.451 203.268C162.731 211.498 165.643 219.906 169.775 227.683" stroke="#0074D9" stroke-width="3" stroke-linecap="round"/>
<path d="M110.51 219.876C110.681 221.647 111.963 219.64 110.883 219.015" stroke="#0074D9" stroke-width="3" stroke-linecap="round"/>
<path d="M132.935 216.655C132.935 216.734 132.935 219.563 132.935 217.441" stroke="#0074D9" stroke-width="3" stroke-linecap="round"/>
</svg>
