<svg width="156" height="259" viewBox="0 0 156 259" fill="none" xmlns="http://www.w3.org/2000/svg">
<path d="M117.791 91.0162C107.793 100.42 98.0192 108.561 82.7337 108.561C73.5374 108.561 64.7093 108.71 55.6809 107.351C53.7841 107.066 48.9866 106.433 47.533 105.066C46.1495 103.765 44.2145 102.699 42.5298 101.906" stroke="#0074D9" stroke-width="3" stroke-linecap="round"/>
<path d="M117.148 91.6212C117.148 94.3607 115.862 97.0007 115.862 99.4863C115.862 102.601 115.862 105.716 115.862 108.83C115.862 111.463 115.862 114.096 115.862 116.729C115.862 118.947 115.049 122.875 116.005 124.897C117.064 127.138 116.995 129.704 117.148 132.157C117.313 134.798 119.078 139.006 119.078 141.837C119.078 144.365 118.495 146.027 119.078 148.492C119.704 151.142 123.327 153.221 124.224 155.752" stroke="#0074D9" stroke-width="3" stroke-linecap="round"/>
<path d="M41.2433 101.906C41.2433 98.2763 41.2433 94.6462 41.2433 91.0162C41.2433 87.8887 42.6249 85.2307 43.2088 82.2099C43.7057 79.6394 46.7659 76.8914 48.3192 74.8153C50.9651 71.2789 54.5575 68.9261 58.3612 66.7485C65.7834 62.4993 75.4966 58.9506 84.3418 58.9506C90.9667 58.9506 98.6944 57.0095 105.248 58.3792C107.029 58.7515 109.312 60.6984 111.001 60.6984C111.123 60.6984 109.635 58.046 109.572 57.875C109.218 56.912 108.786 55.7341 108.786 54.7155C108.786 52.8112 108.272 50.2061 108.821 48.3965C109.271 46.9184 113.979 50.7459 114.432 51.2199C115.445 52.2785 113.301 55.9255 115.54 55.9255C117.776 55.9255 120.228 54.5035 122.294 53.6399C123.895 52.9709 127.354 54.2968 125.189 55.9255C123.718 57.032 122.123 58.0813 120.364 58.8161C119.52 59.1693 118.949 59.4215 118.113 59.8581C116.965 60.4578 118.25 60.0737 119.078 60.7656C120.699 62.1207 124.356 64.288 126.44 65.0007C131.056 66.5794 134.086 71.765 136.732 75.3195C138.884 78.2108 139.607 82.9284 140.806 86.3105C141.857 89.2769 142.617 92.2717 143.522 95.2512C145.216 100.828 154.457 153.482 154.457 159.349C154.457 172.035 147.333 164.424 140.806 176.02C138.695 179.77 136.751 164.539 133.551 167.248C126.44 168.76 129.24 159.736 127.798 159.349C126.171 158.912 124.057 154.49 122.294 153.937" stroke="#0074D9" stroke-width="3" stroke-linecap="round"/>
<path d="M103.64 71.0508C95.9391 71.0508 87.7297 70.2565 80.3393 72.3953C72.5222 74.6575 63.5179 80.5766 59.8979 87.3861" stroke="#0074D9" stroke-width="3" stroke-linecap="round"/>
<path d="M104.926 77.1009C93.8509 77.1009 82.2373 81.8291 78.5525 92.2262" stroke="#0074D9" stroke-width="3" stroke-linecap="round"/>
<path d="M49.3965 106.818C47.4157 108.914 45.905 115.319 45.905 118.103C45.905 122.36 44.429 126.032 47.1243 129.909C50.3014 134.479 53.5004 138.303 58.8734 140.829C64.6676 143.554 70.9481 145.497 77.356 146.25C85.4899 147.207 96.1664 147.89 104.013 145.052C106.98 143.978 110.775 142.953 113.13 140.96C114.556 139.752 116.325 137.034 117.73 136.373" stroke="#0074D9" stroke-width="3" stroke-linecap="round"/>
<path d="M74.8344 136.373C75.4709 133.679 85.2716 132.185 87.5533 131.708C91.2761 130.93 95.4294 131.212 99.2747 131.212" stroke="#0074D9" stroke-width="3" stroke-linecap="round"/>
<path d="M63.8612 143.879C62.1249 143.879 60.6305 144.77 59.1228 145.521C56.5264 146.814 53.0863 148.183 50.8929 149.951C48.9612 151.509 46.4022 152.448 44.6304 154.226C42.2735 156.59 40.2742 158.94 38.1739 161.523C34.2269 166.378 31.8837 173.092 29.4452 178.698C27.7467 182.603 26.4525 186.574 26.4525 190.791" stroke="#0074D9" stroke-width="3" stroke-linecap="round"/>
<path d="M108.253 143.879C107.89 143.879 108.868 144.132 109.25 144.582C109.687 145.096 110.65 145.999 111.246 146.329C112.953 147.273 115.933 149.458 116.732 151.15C117.716 153.233 119.357 155.127 120.695 157.014C122.825 160.019 123.586 163.703 124.325 167.179C126.587 177.816 127.207 188.386 127.207 199.235" stroke="#0074D9" stroke-width="3" stroke-linecap="round"/>
<path d="M46.9026 110.571C50.5123 110.911 54.5902 114.155 57.9867 115.367C61.1074 116.48 63.9159 118.588 67.325 118.989C73.3945 119.703 79.1507 120.892 85.4197 120.892C88.5786 120.892 91.7376 120.892 94.8965 120.892C98.2814 120.892 101.055 119.877 104.263 119.015C107.5 118.145 113.085 116.962 114.737 113.855" stroke="#0074D9" stroke-width="3" stroke-linecap="round"/>
<path d="M56.8782 145.755C54.118 145.755 51.4888 145.286 48.6483 145.286C47.2938 145.286 46.3914 145.523 45.1569 145.781C43.8523 146.054 42.685 147.022 41.416 147.163C39.5349 147.371 35.7882 149.694 37.4257 151.619C38.5426 152.932 40.6359 155.078 41.416 156.545" stroke="#0074D9" stroke-width="3" stroke-linecap="round"/>
<path d="M38.9221 154.199C34.545 154.199 30.9705 154.514 27.2284 156.754C25.478 157.801 23.2786 158.644 21.7695 160.064C20.4728 161.283 19.1432 162.983 17.7238 164.051C17.6984 164.07 11.4889 159.237 10.1035 158.786C7.34096 157.887 4.73692 157.399 2.01219 156.545" stroke="#0074D9" stroke-width="3" stroke-linecap="round"/>
<path d="M99.7735 162.644C101.446 161.071 104.92 158.891 107.255 158.891C110.986 158.891 110.747 162.563 110.747 164.989C110.747 168.028 106.503 169.314 103.764 168.169C102.616 167.689 101.386 166.68 100.771 165.667C100.18 164.693 100.328 163.139 99.2747 162.644" stroke="#0074D9" stroke-width="3" stroke-linecap="round"/>
<path d="M102.766 168.742C99.0685 168.742 94.7713 172.394 92.1809 174.737C89.2292 177.406 86.1246 179.987 83.5908 183.051C82.8603 183.934 82.3883 185.194 81.7065 185.996C80.7091 187.168 81.4673 186.335 80.0439 185.605C75.1328 183.085 70.0373 181.878 64.36 181.878" stroke="#0074D9" stroke-width="3" stroke-linecap="round"/>
<path d="M49.2955 110.305C49.2955 109.825 49.3982 109.412 49.9768 109.344C50.5444 109.278 50.8215 109.179 50.4026 108.864C49.6086 108.266 51.3059 108.67 51.4245 108.695C51.8933 108.793 52.4172 109.131 52.8722 109.184C53.9502 109.311 54.8656 110.145 56.0232 110.145C57.2182 110.145 58.3282 110.243 59.5148 110.305C61.1092 110.389 62.7009 110.946 64.3596 110.946C65.4053 110.946 66.412 111.267 67.4443 111.267C68.3673 111.267 69.5538 111.387 70.4155 111.712C71.5867 112.152 73.0353 112.246 74.2761 112.424C75.6951 112.627 77.0812 112.982 78.4869 113.269C80.7257 113.727 83.5316 113.687 85.8107 113.5C88.6123 113.271 92.2056 112.244 94.6013 110.786C95.5275 110.222 96.6844 109.504 97.7049 109.148C98.1648 108.988 98.5369 108.727 98.8593 108.383C99.1066 108.12 98.4418 108.307 98.3862 108.321C96.9835 108.681 95.6268 109.202 94.2606 109.665C87.8017 111.852 81.7568 115.159 74.9006 116.072C72.5646 116.384 70.5105 116.269 68.277 115.681C67.0482 115.357 66.0122 114.757 64.8327 114.346C63.3191 113.819 61.8154 113.047 60.1961 112.877C58.7021 112.721 57.2501 111.825 55.7677 111.747C55.2224 111.719 54.5624 111.19 54.0645 110.982C53.6169 110.795 53.01 110.664 52.6168 110.377C51.7141 109.716 52.9732 110.158 53.3832 110.341C54.1079 110.664 54.9849 111.194 55.5879 111.667C56.5399 112.413 57.9207 112.644 59.0039 113.153C60.1055 113.671 61.2761 114.047 62.4955 114.301C63.4322 114.497 64.5734 114.977 65.3436 115.556C65.5987 115.748 66.4488 116.139 66.763 116.224C67.3696 116.387 67.9271 116.81 66.8765 116.517C66.2638 116.347 65.2161 116.133 64.757 115.788C64.4593 115.564 63.5584 115.663 63.1768 115.583C62.7238 115.488 62.1878 115.21 61.8993 114.871C61.6294 114.554 60.8896 114.495 60.5746 114.114C60.5335 114.065 63.6943 113.696 64.0757 113.634C64.93 113.494 65.7609 113.029 66.5832 113.029C67.6757 113.029 68.7752 112.991 69.8667 113.029C70.7576 113.06 71.6718 113.496 72.5445 113.678C72.7083 113.713 73.8274 114.328 73.7841 114.399C73.2505 115.277 70.6541 115.492 69.6963 115.627C69.0465 115.719 67.7487 115.658 67.2172 116.108C66.7292 116.521 66.5738 117.034 67.4348 117.034C67.8182 117.034 68.2751 117.408 68.6365 117.505C69.1398 117.641 69.8695 117.488 70.283 117.799C70.5141 117.973 71.713 118.155 72.0335 118.155C72.4822 118.155 73.4901 118.342 73.9165 118.511C74.4504 118.722 75.2229 118.935 75.8279 118.956C76.3233 118.973 77.5697 118.974 77.9948 119.196C78.6246 119.525 80.0366 119.276 80.72 119.276C81.6479 119.276 82.516 119.437 83.4546 119.437C85.0727 119.437 86.6907 119.437 88.3088 119.437C89.2384 119.437 90.3545 119.027 91.2327 118.76C92.813 118.281 94.3962 117.702 95.926 117.114C97.8173 116.386 99.584 115.524 101.67 115.191C102.675 115.031 103.634 114.712 104.622 114.479C105.017 114.386 106.304 113.685 105.18 113.669C103.895 113.652 102.624 114.082 101.338 114.186C99.0764 114.368 96.8524 114.488 94.5824 114.47C91.9703 114.451 89.3895 113.99 86.757 113.99C83.8447 113.99 81.31 114.296 78.7613 115.627C78.2195 115.911 77.6979 116.503 77.2662 116.909C77.1088 117.057 76.9035 117.05 76.7553 117.229C76.6565 117.349 78.0727 117.354 78.2598 117.354C79.637 117.354 81.0284 117.194 82.4232 117.194C83.7738 117.194 85.1634 117.289 86.4636 116.909C87.5319 116.597 88.6366 116.376 89.6619 115.948C90.1054 115.762 90.4337 115.743 89.643 115.877C88.7123 116.034 87.7926 116.28 86.8516 116.384C86.1705 116.459 85.5163 116.553 84.8267 116.553C84.4005 116.553 84.4391 116.506 84.8267 116.562C86.7574 116.841 88.5795 117.034 90.5514 117.034C92.5099 117.034 97.924 114.771 96.2667 115.752C94.7506 116.65 92.5833 116.812 90.8542 117.069C89.3776 117.288 87.5646 117.362 86.0851 117.114C83.2143 116.632 80.5556 116.393 77.6447 116.393C76.6454 116.393 75.498 116.196 74.5411 115.948C73.488 115.675 72.0747 115.693 71.1819 115.04C70.0075 114.181 73.3692 114.47 73.8598 114.47C76.0046 114.47 78.1494 114.47 80.2942 114.47C80.72 114.47 81.1458 114.47 81.5716 114.47C82.0379 114.47 80.7039 114.47 80.5591 114.47C77.7141 114.47 74.8691 114.47 72.0241 114.47C68.1815 114.47 65.0566 113.104 61.4735 112.068C59.8866 111.608 58.137 111.423 56.6193 110.822C56.3682 110.722 53.6677 110.287 54.197 109.789C54.7739 109.247 57.5821 109.643 58.4077 109.816C60.7876 110.313 63.4051 110.946 65.8357 110.946C66.6368 110.946 67.438 110.946 68.2391 110.946C69.2223 110.946 70.1543 110.626 71.1725 110.626C72.9672 110.626 74.7619 110.626 76.5565 110.626C77.5219 110.626 78.392 110.786 79.3479 110.786C79.9466 110.786 80.5297 111.106 81.1458 111.106C83.1663 111.106 85.2278 111.267 87.2774 111.267C88.7541 111.267 90.0355 111.06 91.4503 110.715C92.6353 110.426 94.0561 109.725 95.2826 109.665C97.2121 109.569 91.4134 109.717 89.4916 109.905C87.0213 110.147 84.5622 110.466 82.0731 110.466C81.3666 110.466 80.6601 110.466 79.9535 110.466C79.4731 110.466 79.4545 110.466 79.9914 110.466C81.0638 110.466 82.1362 110.466 83.2086 110.466C84.3304 110.466 85.4665 110.512 86.5867 110.457C87.7415 110.4 88.8743 109.994 89.9931 109.745C91.6778 109.369 93.7839 108.745 95.2069 107.778C96.151 107.137 97.168 106.578 98.1402 105.98C98.922 105.499 99.8785 105.456 100.723 105.108C101.562 104.763 102.461 104.604 103.288 104.254C103.639 104.105 104.098 103.935 104.48 103.898C104.746 103.871 105.338 103.379 105.218 103.604C104.723 104.535 103.253 105.334 102.417 105.989C101.43 106.763 100.17 107.263 99.2473 108.089C98.29 108.947 95.122 111.146 96.3045 110.59C96.9648 110.28 97.5868 109.699 98.1591 109.273C99.3875 108.36 100.67 107.502 101.925 106.621C102.885 105.947 103.81 105.295 104.726 104.574C105.571 103.91 106.604 103.418 107.3 102.607C107.79 102.036 109.469 99.8401 110.441 99.7326C111.428 99.6234 112.464 98.56 113.129 97.9348C113.464 97.6192 113.548 97.2472 113.81 96.9737C113.996 96.7787 113.965 96.507 114.151 96.3329C114.167 96.3175 114.003 96.8473 113.923 97.0182C113.386 98.1733 113.01 99.3694 112.618 100.569C112.225 101.768 111.903 102.957 111.624 104.138C111.212 105.881 110.38 107.779 110.271 109.576C110.236 110.149 110.048 112.313 110.101 110.537C110.172 108.121 111.489 105.959 112.381 103.764C112.465 103.558 113.582 101.012 112.901 101.361C111.079 102.296 109.772 104.791 108.568 106.301C107.524 107.609 106.526 109.045 105.332 110.234C104.706 110.857 104.378 111.155 103.553 111.578C102.289 112.226 100.607 113.509 99.1243 113.509C97.7772 113.509 96.3001 113.99 94.9419 113.99C94.4842 113.99 93.1216 114.15 93.5793 114.15C94.5466 114.15 95.538 114.155 96.4748 113.91C99.1035 113.223 101.972 112.432 103.931 110.59C104.384 110.164 105.031 109.948 105.502 109.504C106.165 108.881 106.947 107.79 107.205 106.941C107.394 106.319 107.837 105.866 108.312 105.419C108.426 105.312 108.817 104.911 108.719 104.957C107.219 105.662 105.779 106.853 104.348 107.707C102.484 108.817 100.494 110.014 98.8972 111.462C98.1136 112.173 97.2902 112.805 96.3045 113.269C95.4496 113.671 94.2884 114.195 93.6172 114.826C93.3117 115.114 94.3891 114.458 94.7527 114.239C96.1441 113.4 97.6417 112.688 99.077 111.916C100.567 111.115 102.25 110.515 103.96 110.314C104.908 110.203 103.828 110.887 103.534 111.115C102.319 112.061 101.127 113.037 99.9191 113.99C98.7474 114.914 97.6816 115.71 96.3045 116.357C95.5962 116.69 94.8236 116.782 94.1849 117.274C93.7438 117.613 92.7846 118.075 92.5574 118.555C92.3774 118.936 92.0453 119.509 91.7436 119.792C91.1062 120.392 91.9541 120.237 92.4722 120.237C93.014 120.237 93.771 120.246 94.2606 120.042C94.6352 119.885 95.4144 119.639 95.7935 119.597C96.2817 119.543 96.642 119.083 97.0804 118.965C97.3911 118.881 98.1546 118.623 98.3484 118.395C98.4998 118.217 99.4603 117.704 99.711 117.674C100.652 117.564 101.728 116.664 102.531 116.233C103.459 115.733 104.408 114.512 105.417 114.301C106.083 114.162 107.392 112.932 107.754 112.388C108.27 111.611 109.136 110.959 109.76 110.225C111.242 108.482 112.159 106.244 113.299 104.218C114.37 102.315 113.507 100.167 113.507 98.1306C113.507 97.5236 113.777 97.0947 113.848 96.5287C113.867 96.3715 114.825 95.7969 114.453 95.8968C114.234 95.9558 113.777 96.4554 113.573 96.6177C113.017 97.0607 112.457 97.5159 111.88 97.9348C111.021 98.5577 110.502 99.5531 109.921 100.373C109.192 101.402 108.638 102.558 107.886 103.568C107.25 104.423 106.413 105.239 105.88 106.14C104.759 108.039 104.081 110.345 103.789 112.539C103.677 113.386 103.339 114.303 103.032 115.111C102.821 115.666 102.159 116.497 102.095 117.034C102.067 117.276 101.192 118.604 101.755 118.636C102.388 118.671 102.943 118.432 103.543 118.306C104.079 118.194 104.636 117.835 105.161 117.835C105.693 117.835 106.705 117.554 107.205 117.318C108.223 116.84 109.182 116.552 109.93 115.672C110.526 114.971 111.352 114.486 112.012 113.865C112.835 113.092 113.166 111.849 113.166 110.786C113.166 110.339 113.481 109.975 113.507 109.504C113.548 108.774 113.848 108.096 113.848 107.342C113.848 106.867 113.848 105.443 113.848 105.918C113.848 106.514 113.848 107.11 113.848 107.707C113.848 108.395 114.014 110.5 113.422 110.946C113.175 111.132 113.318 112.249 113.337 112.548C113.348 112.723 113.731 112.996 113.299 113.029C112.776 113.068 112.247 113.252 111.728 113.34C110.205 113.601 108.58 114.446 107.205 115.111C106.316 115.541 105.38 115.796 104.48 116.197C104.307 116.274 103.207 117.033 103.562 116.624C104.854 115.139 106.886 114.163 107.962 112.477C108.672 111.364 109.466 110.334 110.138 109.184C110.871 107.931 111.606 106.758 112.996 106.105C114.289 105.497 113.677 104.547 113.677 103.337C113.677 102.671 113.561 101.899 113.687 101.246C113.828 100.515 114.188 99.8354 114.188 99.0918C114.188 97.9953 114.529 96.9132 114.529 95.8078C114.529 95.5683 114.468 95.2462 114.538 95.0157C114.564 94.9314 114.883 94.5825 114.87 94.7665C114.854 94.99 114.489 95.262 114.359 95.4429C113.743 96.2964 113.185 97.1553 112.542 97.9971C110.829 100.238 108.738 102.171 106.874 104.289C105.89 105.408 104.822 106.341 103.496 107.066C102.126 107.815 100.284 108.361 98.7458 108.703C96.467 109.211 94.3073 110.18 91.9518 110.466C89.5457 110.758 87.2306 111.119 84.8172 111.275C82.655 111.416 80.4702 111.644 78.326 111.943C75.9221 112.278 73.3633 112.068 70.9264 112.068C68.7469 112.068 66.697 111.788 64.5488 111.596C63.7759 111.527 62.9145 111.267 62.1548 111.267C61.946 111.267 60.4703 110.76 60.5746 110.661C60.698 110.545 61.8622 110.466 62.0697 110.466C62.6658 110.466 63.2619 110.466 63.8581 110.466C64.3652 110.466 65.3621 110.632 65.8168 110.822C66.395 111.063 67.1428 110.946 67.7755 110.946C68.3432 110.946 68.911 110.946 69.4787 110.946C70.1281 110.946 69.3977 110.946 69.1475 110.946C68.4865 110.946 67.8627 110.8 67.2172 110.786C66.8411 110.778 65.2135 110.32 65.4761 110.305C65.9942 110.277 66.5065 110.145 67.0942 110.145C67.3249 110.145 68.6396 110.026 68.7028 110.234C69.1237 111.62 70.0906 112.535 71.4374 113.314C74.8185 115.267 78.4528 114.394 82.2056 114.871C83.4998 115.035 84.8199 114.931 86.123 115.031C90.79 115.391 95.4248 114.812 100.052 114.31" stroke="#0074D9" stroke-width="5" stroke-linecap="round"/>
<path d="M106.524 111.106C105.754 111.83 105.188 112.683 104.414 113.411C104.325 113.495 104.03 113.933 104.31 113.669C105.048 112.975 105.611 112.098 106.297 111.356C106.49 111.146 107.943 109.296 108.142 109.371C108.439 109.483 106.944 111.589 106.789 111.818C106.182 112.716 107.319 111.244 107.508 111.017C107.611 110.894 108.605 109.682 108.473 109.682C107.83 109.682 106.681 111.148 106.316 111.587C105.683 112.346 104.846 112.97 104.139 113.669C103.355 114.446 102.71 115.273 102.095 116.108C101.656 116.705 100.764 117.373 100.553 118.066C100.289 118.934 100.266 117.635 100.392 117.265C100.827 115.989 101.494 114.885 102.086 113.678C102.801 112.221 103.836 111.463 105.161 110.466" stroke="#0074D9" stroke-width="5" stroke-linecap="round"/>
<path d="M25.5165 191.273C25.7853 192.411 29.7677 194.126 30.8333 194.666C32.8913 195.708 35.5203 195.709 37.7048 196.42C42.658 198.033 47.9108 199.171 52.94 200.485C62.9392 203.097 74.0579 202.327 84.4055 202.327C92.586 202.327 100.901 202.854 109.186 202.854C114.842 202.854 121.435 203.015 126.256 200.748" stroke="#0074D9" stroke-width="3" stroke-linecap="round"/>
<path d="M106.996 105.649C106.021 105.741 101.883 107.297 101.883 108.516C101.883 109.232 101.666 110.366 102.473 110.787C103.488 111.318 104.463 111.568 105.619 111.568C107.472 111.568 110.65 110.469 109.509 108.054C108.883 106.73 108.02 105.267 106.209 105.834" stroke="white" stroke-width="2" stroke-linecap="round"/>
<path d="M104.046 108.794C103.547 108.376 104.469 108.78 104.625 107.972C104.743 107.362 104.61 106.899 103.893 107.314C103.242 107.691 101.769 109.815 103.543 109.338C103.951 109.229 102.914 108.543 102.866 109.349C102.814 110.228 103.18 110.173 103.849 109.678C104.424 109.251 104.749 108.418 105.313 108.064C105.466 107.969 105.002 108.27 104.92 108.424C104.734 108.774 104.51 109.137 104.45 109.534C104.303 110.5 105.123 110.423 105.619 109.76C106.089 109.132 106.444 108.182 106.592 107.417C106.799 106.342 105.961 107.901 105.86 108.198C105.751 108.514 105.597 108.825 105.619 109.164C105.639 109.455 106.005 108.758 106.013 108.609C106.038 108.127 105.773 107.202 105.04 107.777C104.688 108.052 104.046 108.882 104.046 108.146C104.046 107.548 104.478 107.654 105.029 107.684C105.497 107.71 105.441 108.433 105.816 108.609" stroke="white" stroke-width="2" stroke-linecap="round"/>
<path d="M105.047 107.161C105.492 107.161 105.981 107.057 106.416 106.966C106.732 106.9 107.108 106.919 107.432 106.937C107.684 106.95 107.927 107.295 108.077 107.452C108.249 107.631 108.506 107.755 108.506 108.04C108.506 108.342 108.663 108.803 108.523 109.103C108.377 109.418 108.3 109.683 108.006 109.909C107.826 110.047 107.608 110.071 107.395 110.133C107.151 110.205 106.813 110.246 106.558 110.266C106.246 110.291 105.94 110.376 105.623 110.376C105.338 110.376 105.009 110.401 104.729 110.46C104.503 110.507 104.104 110.503 103.965 110.713C103.952 110.732 103.843 110.788 103.903 110.788C104.07 110.788 104.223 110.802 104.389 110.817C105.08 110.879 105.675 110.797 106.275 110.455C106.655 110.239 106.956 109.954 107.043 109.541C107.116 109.198 107.194 108.837 107.194 108.486C107.194 108.219 107.194 107.952 107.194 107.684C107.194 107.581 107.121 107.307 107.313 107.593C107.576 107.985 107.67 108.428 107.909 108.823C107.947 108.885 107.972 109.103 108.086 108.935C108.144 108.849 108.108 108.67 108.108 108.573C108.108 108.345 108.037 108.193 107.909 108C107.645 107.599 107.277 107.27 107.013 106.878C106.93 106.756 106.849 106.63 106.776 106.507C106.721 106.413 106.606 106.391 106.558 106.301" stroke="white" stroke-width="2" stroke-linecap="round"/>
<path d="M95.423 109.672C94.682 109.672 93.904 109.722 93.2411 110.034C92.7733 110.254 91.9164 110.585 91.9164 111.202C91.9164 111.97 91.9687 112.369 92.7102 112.805C93.4342 113.231 94.2934 113.135 95.1113 113.135C95.8945 113.135 96.5462 113.091 97.0204 112.439C97.3423 111.996 97.5131 111.084 97.2445 110.579C96.7849 109.714 95.7752 109.754 94.897 109.754" stroke="white" stroke-width="2" stroke-linecap="round"/>
<path d="M92.3547 111.733C92.2511 111.733 92.4097 111.741 92.4423 111.687C92.5184 111.562 92.596 111.424 92.7053 111.321C92.8649 111.171 92.7222 111.846 92.8466 111.898C93.5649 112.198 94.5853 111.774 94.1957 110.95C93.7946 110.101 92.7334 111.272 93.4067 111.77C94.2919 112.424 94.507 111.142 93.9327 110.872C93.0772 110.47 93.2733 112.062 94.0739 112.141C94.5959 112.193 94.6071 111.734 94.7022 111.321C94.7487 111.119 94.8358 110.579 94.5025 110.579C94.2173 110.579 94.3716 111.21 94.5268 111.321C94.7276 111.464 95.1557 111.623 95.3743 111.399C95.9024 110.857 94.6823 110.04 94.8142 111.156C94.8953 111.843 96.273 112.293 96.0171 111.358C95.9538 111.126 95.6336 110.929 95.384 110.996C95.1911 111.048 95.3791 111.646 95.5106 111.715C96.2129 112.082 96.2125 111.156 95.6178 111.156C94.985 111.156 94.6421 112.316 95.423 112.393C95.6612 112.416 95.7807 112.437 95.6811 112.109C95.6307 111.943 95.019 111.844 95.0918 111.981C95.1598 112.109 95.5953 112.093 95.7249 112.058C95.8338 112.029 95.7895 111.365 95.7542 111.257C95.6991 111.089 95.4327 110.872 95.4327 110.707C95.4327 110.563 95.9418 110.691 96.0171 110.762C96.28 111.009 96.6037 111.508 96.1243 111.733" stroke="white" stroke-width="2" stroke-linecap="round"/>
<path d="M126.97 109.984C126.97 111.424 126.855 112.912 127.107 114.333C127.458 116.314 128.384 118.087 129.154 119.938C130.387 122.902 131.726 125.841 133.111 128.737C133.943 130.476 134.508 132.388 135.219 134.171C136.116 136.42 137.474 138.503 138.373 140.731C139.301 143.033 140.132 145.144 140.602 147.576C140.984 149.552 140.89 151.618 140.89 153.637C140.89 155.012 141.112 156.325 141.163 157.673C141.186 158.282 140.959 159.223 141.224 159.784C141.442 160.247 141.42 161.261 141.845 161.581C141.964 161.671 142.444 160.799 142.664 160.426C143.401 159.178 143.262 157.908 143.832 156.704C144.537 155.211 143.892 152.034 143.892 150.429C143.892 147.497 143.01 144.802 142.543 141.943C142.072 139.067 141.87 136.086 140.678 133.344C140.06 131.924 139.723 129.975 139.389 128.466C139.022 126.809 138.321 125.235 137.888 123.603C136.618 118.825 135.862 113.583 132.095 110.041C131.298 109.291 129.547 108.153 128.471 107.816C127.436 107.491 126.97 110.655 126.97 111.267" stroke="#0074D9" stroke-width="3" stroke-linecap="round"/>
<path d="M127.999 112.503C127.999 113.84 127.791 115.312 128.255 116.59C128.321 116.77 129.85 120.914 130.428 120.371C130.633 120.178 130.46 119.051 130.445 118.85C130.373 117.871 129.996 116.947 129.658 116.027C129.272 114.976 128.775 113.37 127.999 112.503ZM127.999 112.503C127.782 112.261 127.845 112.065 127.845 112.551C127.845 113.555 127.827 114.549 127.999 115.544C128.128 116.298 128.319 116.971 128.76 117.619C128.856 117.761 129.076 118.345 129.23 118.408C129.452 118.499 129.373 116.917 129.367 116.831C129.292 115.772 128.819 114.79 128.426 113.806C127.972 112.667 127.619 111.418 127.041 110.331C126.852 109.976 127.043 110.189 127.16 110.419C127.524 111.134 127.963 111.811 128.307 112.535C128.739 113.446 129.347 114.974 130.154 115.689C131.073 116.502 129.481 113.401 129.076 112.278C128.971 111.984 128.035 109.936 128.786 110.958C130.029 112.651 130.853 114.587 131.814 116.429C131.964 116.717 132.052 117.069 132.224 117.338C132.411 117.631 131.837 116.759 131.66 116.461C130.918 115.213 130.18 113.911 129.573 112.599C129.417 112.263 129.22 111.884 129.171 111.513C129.111 111.067 129.782 112.206 130.069 112.567C130.632 113.277 131.107 114.13 131.728 114.788C132.427 115.527 130.534 113.158 129.966 112.326C129.264 111.298 128.348 110.144 127.964 108.963C127.484 107.485 128.535 109.633 128.803 110.041C129.53 111.151 130.188 112.305 130.924 113.404C131.632 114.462 130.769 113.472 130.496 112.905C130.257 112.406 129.991 112.007 129.692 111.545C129.654 111.486 129.261 110.685 129.265 110.685C129.638 110.685 130.391 112.216 130.548 112.438C131.362 113.596 132.02 114.807 132.772 115.994C133.139 116.574 133.585 117.091 133.909 117.7C134.032 117.931 134.311 118.634 134.311 118.376C134.311 117.96 133.685 117.392 133.473 117.064C132.968 116.286 132.534 115.472 132.002 114.707C131.463 113.933 131.074 112.776 130.428 112.101C130.185 111.847 131.509 113.181 131.745 113.452C132.172 113.941 132.397 114.735 132.891 115.142C133.821 115.907 131.59 113.158 131.078 112.101C130.76 111.444 130.433 110.333 129.966 109.784C129.735 109.512 131.102 110.787 131.318 111.063C132.014 111.954 132.725 112.876 133.464 113.726C134.173 114.54 132.37 113 132.164 112.792C131.591 112.212 130.879 111.532 130.462 110.846C129.948 109.999 131.123 112.696 131.54 113.589C132.95 116.611 133.417 119.984 134.149 123.195C134.653 125.408 134.927 127.747 134.927 130.009C134.927 130.453 134.934 130.076 134.927 129.864C134.892 128.826 134.468 127.924 134.08 126.968C132.367 122.745 129.847 118.735 128.538 114.377C128.304 113.599 128.018 112.82 127.879 112.02C127.861 111.916 127.691 110.996 127.691 111.521C127.691 112.459 128.179 113.331 128.529 114.192C129.252 115.97 130.091 117.679 130.898 119.422C131.98 121.755 133.261 124.053 134.08 126.485C134.548 127.872 135.24 129.317 135.543 130.741C135.641 131.203 136.082 132.066 135.842 131.014C135.281 128.551 134.033 126.216 133.174 123.838C132.201 121.147 130.941 118.396 130.941 115.504C130.941 115.027 131.199 116.425 131.352 116.879C131.704 117.924 131.985 118.996 132.31 120.049C132.907 121.984 133.447 123.945 133.935 125.906C134.277 127.279 134.667 128.807 135.304 130.089C135.325 130.133 135.543 130.511 135.543 130.508C135.611 129.552 135.56 128.559 135.534 127.603C135.469 125.118 134.834 122.81 134.003 120.467C133.623 119.393 133.388 118.491 133.388 117.362C133.388 117.156 133.299 115.812 133.396 116.493C133.567 117.702 133.958 118.977 134.32 120.146C134.845 121.843 135.305 123.58 135.774 125.294C136.286 127.169 135.873 124.224 135.765 123.718C135.318 121.611 134.612 119.412 133.695 117.442C133.493 117.007 133.234 116.531 133.234 116.051C133.234 115.038 134.004 116.336 134.234 116.702C134.862 117.702 135.831 118.7 136.125 119.856C136.711 122.162 136.467 124.605 136.467 126.984C136.467 127.459 136.063 126.698 135.996 126.582C135.531 125.772 135.198 124.883 134.807 124.039C134.205 122.739 133.319 121.572 132.618 120.323C132.355 119.854 132.427 119.211 132.72 119.936C133.707 122.377 134.426 124.915 135.269 127.402C136.195 130.132 137.443 132.772 138.28 135.528C138.617 136.637 138.286 137.807 138.622 138.923C139.167 140.73 139.817 142.358 140.744 144.007C140.933 144.344 141.414 145.318 141.394 144.474C141.352 142.692 140.05 140.653 139.221 139.116C138.548 137.867 137.411 136.867 136.843 135.56C136.515 134.803 136.189 134.015 135.885 133.243C135.644 132.631 135.235 131.688 135.235 131.039C135.235 129.831 135.564 131.598 135.663 131.972C136.089 133.589 136.702 135.121 137.391 136.654C137.574 137.062 138.006 137.777 138.006 136.944C138.006 135.603 138.206 134.116 137.853 132.809C137.589 131.834 137.412 130.835 137.202 129.848C137.088 129.308 137.123 127.775 136.809 128.239C136.527 128.655 137.374 129.996 137.536 130.371C137.826 131.038 138.097 131.667 138.468 132.294C138.687 132.662 139.613 134.469 139.05 133.018C138.063 130.472 137.211 127.989 136.501 125.391C136.455 125.221 136.161 124.032 136.347 124.731C136.684 126.001 137.347 127.165 137.699 128.432C138.51 131.358 139.235 134.263 140.162 137.153C140.821 139.208 141.548 141.454 141.548 143.621C141.548 144.278 141.702 144.923 141.702 145.592C141.702 145.962 141.707 145.799 141.702 145.488C141.688 144.703 141.383 144.014 141.163 143.267C140.72 141.762 140.259 140.27 139.709 138.802C139.342 137.825 139.658 139.046 139.709 139.43C139.941 141.181 140.878 142.934 141.077 144.715C141.215 145.945 141.394 147.183 141.556 148.408C141.855 150.653 141.856 153.072 141.856 155.351C141.856 156.276 142.01 157.169 142.01 158.126C142.01 158.308 142.01 159.514 142.01 158.754C142.01 158.005 142.027 157.25 142.241 156.525C142.383 156.043 142.318 155.502 142.318 155.005C142.318 154.169 142.521 153.287 142.711 152.471C142.99 151.272 142.933 150.073 142.933 148.85C142.933 147.865 142.338 146.964 142.155 146.019C141.973 145.075 141.885 145.652 141.847 146.252C141.759 147.661 141.548 149.01 141.548 150.435C141.548 153.152 141.394 155.818 141.394 158.545C141.394 159.459 141.24 160.303 141.24 161.208C141.24 164.796 141.394 154.032 141.394 150.443" stroke="#0074D9" stroke-width="3" stroke-linecap="round"/>
<path d="M133.849 113.806V116.123" stroke="#0074D9" stroke-width="3" stroke-linecap="round"/>
<path d="M17.4932 20.7231C17.4932 23.6081 19.1449 28.4199 20.6866 30.9574C22.0661 33.228 23.3194 23.9846 24.1757 23.7545C26.6555 23.0881 27.6655 32.6587 30.2668 32.5147C32.0257 32.4174 32.632 22.8647 35.0569 21.7243" stroke="#0074D9" stroke-width="3" stroke-linecap="round"/>
<path d="M40.3793 23.2261C40.3793 24.9814 40.7612 27.2414 40.3497 28.9828C40.0601 30.2086 39.3148 31.5462 39.3148 32.7372" stroke="#0074D9" stroke-width="3" stroke-linecap="round"/>
<path d="M39.3148 12.7138C39.3148 14.0923 38.8081 15.8061 40.6454 16.1901C42.4887 16.5753 43.4528 15.8582 44.5189 14.6049C45.1035 13.9176 44.8797 11.212 43.8388 11.212C43.0319 11.212 41.9832 11.0313 41.2072 11.2398C40.4981 11.4304 40.6064 12.8573 39.847 13.2144" stroke="#0074D9" stroke-width="3" stroke-linecap="round"/>
<path d="M53.6851 6.70676C53.6851 17.5124 49.9595 27.5375 49.9595 38.2437" stroke="#0074D9" stroke-width="3" stroke-linecap="round"/>
<path d="M46.7661 18.7208H56.8786" stroke="#0074D9" stroke-width="3" stroke-linecap="round"/>
<path d="M59.0075 10.2108C59.0075 15.0942 59.097 19.719 60.072 24.5332C60.4335 26.3183 61.5689 28.4505 61.6687 30.2343C61.6876 30.5718 62.0235 33.2796 62.1713 32.9319C62.9148 31.1837 61.4832 26.7302 64.8621 26.7302C68.1159 26.7302 68.3835 28.849 69.6522 31.2355" stroke="#0074D9" stroke-width="3" stroke-linecap="round"/>
<path d="M77.6357 24.2273C77.6357 27.1957 76.3394 30.5815 80.0012 31.2077C82.0237 31.5535 86.473 30.9993 86.6837 28.6213C86.9476 25.6437 87.0305 20.2226 82.3963 20.2226C78.6709 20.2226 76.5827 23.6945 75.5068 26.7302" stroke="#0074D9" stroke-width="3" stroke-linecap="round"/>
<path d="M95.1995 21.2238C95.1995 23.3577 94.0726 28.1732 95.7317 29.7337C96.5154 30.4708 97.5976 30.7349 98.659 30.7349C101.032 30.7349 100.426 28.5463 101.291 27.0361C102.612 24.7287 102.119 18.6653 102.119 25.7012C102.119 27.881 102.967 36.1397 105.312 37.2425" stroke="#0074D9" stroke-width="3" stroke-linecap="round"/>
<path d="M114.36 2.20148C114.033 5.58666 112.349 8.89937 112.231 12.3244C112.109 15.8939 112.231 19.4872 112.231 23.0592C112.231 25.9498 111.748 28.8274 113.946 31.1243C117.489 34.827 123.577 27.5722 125.537 25.729" stroke="#0074D9" stroke-width="3" stroke-linecap="round"/>
<path d="M102.651 13.2144C107.822 13.6566 112.837 15.191 117.997 13.4925C120.119 12.794 122.217 12.2251 124.354 11.6014C126.088 11.0954 127.594 10.1025 129.263 9.7103" stroke="#0074D9" stroke-width="3" stroke-linecap="round"/>
<path d="M21.7511 218.955C21.7511 225.73 21.2559 232.851 22.9338 239.479C24.4089 245.307 25.5374 251.222 27.0734 257" stroke="#0074D9" stroke-width="3" stroke-linecap="round"/>
<path d="M21.7511 224.962C26.2993 223.061 26.0089 226.164 26.0089 229.357C26.0089 231.859 23.2766 232.605 22.2833 234.474" stroke="#0074D9" stroke-width="3" stroke-linecap="round"/>
<path d="M28.6701 228.467C34.4415 228.467 40.9905 229.437 46.2338 226.854C48.6242 225.676 49.4272 223.611 49.4272 221.236C49.4272 219.311 47.1338 219.791 45.4651 220.068C42.9969 220.478 40.9115 221.628 40.9115 224.212C40.9115 225.237 40.4641 227.348 41.3254 228.077C42.8065 229.331 46.7344 229.123 48.6585 229.468C51.2611 229.934 53.7007 230.693 56.3463 230.97" stroke="#0074D9" stroke-width="3" stroke-linecap="round"/>
<path d="M60.072 223.461C60.4915 227.407 69.8815 230.591 70.1845 225.463C70.3171 223.218 70.5272 219.957 67.2572 219.957C64.8637 219.957 59.5397 219.592 59.5397 222.96" stroke="#0074D9" stroke-width="3" stroke-linecap="round"/>
<path d="M78.7002 218.955C78.7002 225.945 78.7002 232.935 78.7002 239.924C78.7002 245.092 78.5503 250.57 80.2969 255.498" stroke="#0074D9" stroke-width="3" stroke-linecap="round"/>
<path d="M78.168 222.46C79.4129 222.46 82.4534 221.077 83.3721 222.46C84.7468 224.528 84.9486 226.884 85.6488 229.19C86.1574 230.864 83.708 231.47 81.8936 231.47C80.6886 231.47 79.1497 231.747 78.168 230.97C77.4792 230.424 76.9416 229.968 76.039 229.968" stroke="#0074D9" stroke-width="3" stroke-linecap="round"/>
<path d="M94.6673 210.946C94.6673 218.632 95.1995 225.951 95.1995 233.472" stroke="#0074D9" stroke-width="3" stroke-linecap="round"/>
<path d="M106.909 226.464C110.827 226.464 115.957 226.249 115.957 221.486C115.957 219.084 116.345 218.353 113.414 218.455C111.643 218.517 109.755 221.055 108.801 222.209C105.338 226.397 110.844 228.467 114.478 228.467C122.111 228.467 129.619 228.967 137.246 228.967" stroke="#0074D9" stroke-width="3" stroke-linecap="round"/>
<path d="M45.1694 169.397C46.8366 168.004 54.5266 165.506 56.2281 167.506C57.2968 168.763 56.0713 171.222 55.2819 172.151C54.2316 173.385 52.3531 173.905 51.5562 175.404" stroke="#0074D9" stroke-width="3" stroke-linecap="round"/>
<path d="M58.4753 160.387C59.9671 160.231 62.1095 158.056 62.7331 156.883" stroke="#0074D9" stroke-width="3" stroke-linecap="round"/>
<path d="M61.1364 161.889C63.4413 161.889 65.7067 160.697 66.991 158.885" stroke="#0074D9" stroke-width="3" stroke-linecap="round"/>
</svg>
